<mxfile host="65bd71144e">
    <diagram id="PP5qGfRJTbU43sdhmLFE" name="Page-1">
        <mxGraphModel dx="1267" dy="532" grid="1" gridSize="10" guides="1" tooltips="1" connect="1" arrows="1" fold="1" page="1" pageScale="1" pageWidth="827" pageHeight="1169" math="0" shadow="0">
            <root>
                <mxCell id="0"/>
                <mxCell id="1" parent="0"/>
                <mxCell id="4" value="" style="edgeStyle=none;html=1;entryX=0;entryY=0.5;entryDx=0;entryDy=0;entryPerimeter=0;" parent="1" source="2" target="5" edge="1">
                    <mxGeometry relative="1" as="geometry">
                        <mxPoint x="280" y="190" as="targetPoint"/>
                    </mxGeometry>
                </mxCell>
                <mxCell id="2" value="Golang Package&lt;br&gt;user-group" style="whiteSpace=wrap;html=1;" parent="1" vertex="1">
                    <mxGeometry x="80" y="160" width="120" height="60" as="geometry"/>
                </mxCell>
                <mxCell id="5" value="mongdb" style="strokeWidth=2;html=1;shape=mxgraph.flowchart.database;whiteSpace=wrap;" parent="1" vertex="1">
                    <mxGeometry x="290" y="160" width="60" height="60" as="geometry"/>
                </mxCell>
                <mxCell id="6" value="user group&lt;br&gt;- Create&lt;br&gt;- Update&lt;br&gt;- Add a user&lt;br&gt;- Delete&lt;br&gt;- Read" style="text;html=1;align=center;verticalAlign=middle;resizable=0;points=[];autosize=1;strokeColor=none;fillColor=none;" parent="1" vertex="1">
                    <mxGeometry x="45" y="230" width="90" height="100" as="geometry"/>
                </mxCell>
                <mxCell id="7" value="user&lt;br&gt;-CRUD" style="text;html=1;align=center;verticalAlign=middle;resizable=0;points=[];autosize=1;strokeColor=none;fillColor=none;" parent="1" vertex="1">
                    <mxGeometry x="170" y="250" width="60" height="40" as="geometry"/>
                </mxCell>
                <mxCell id="8" value="Access&lt;br&gt;- relationship between user and user group." style="text;html=1;align=center;verticalAlign=middle;resizable=0;points=[];autosize=1;strokeColor=none;fillColor=none;" vertex="1" parent="1">
                    <mxGeometry x="289" y="250" width="250" height="40" as="geometry"/>
                </mxCell>
                <mxCell id="9" value="User has some role access for an user gorup&lt;br&gt;" style="text;html=1;align=center;verticalAlign=middle;resizable=0;points=[];autosize=1;strokeColor=none;fillColor=none;" vertex="1" parent="1">
                    <mxGeometry x="45" y="350" width="260" height="30" as="geometry"/>
                </mxCell>
            </root>
        </mxGraphModel>
    </diagram>
</mxfile>